<mxfile host="app.diagrams.net" modified="2023-06-08T15:03:20.416Z" agent="Mozilla/5.0 (Windows NT 10.0; Win64; x64) AppleWebKit/537.36 (KHTML, like Gecko) Chrome/114.0.0.0 Safari/537.36" etag="p_LA-yW0K-e4NPlLA__q" version="21.3.7" type="device">
  <diagram id="0LQR3EkiSTuNCjAe6kCY" name="Page-2">
    <mxGraphModel dx="1900" dy="1649" grid="1" gridSize="10" guides="1" tooltips="1" connect="1" arrows="1" fold="1" page="1" pageScale="1" pageWidth="850" pageHeight="1100" math="0" shadow="0">
      <root>
        <mxCell id="0" />
        <mxCell id="1" parent="0" />
        <mxCell id="Apf32Z8yxxnL-lNzwtcJ-1" value="Χειριστής" style="shape=umlActor;verticalLabelPosition=bottom;verticalAlign=top;html=1;" parent="1" vertex="1">
          <mxGeometry x="60" y="180" width="30" height="60" as="geometry" />
        </mxCell>
        <mxCell id="Apf32Z8yxxnL-lNzwtcJ-2" value="Απλός χρήστης" style="shape=umlActor;verticalLabelPosition=bottom;verticalAlign=top;html=1;" parent="1" vertex="1">
          <mxGeometry y="310" width="30" height="60" as="geometry" />
        </mxCell>
        <mxCell id="Apf32Z8yxxnL-lNzwtcJ-3" value="Ξεναγός" style="shape=umlActor;verticalLabelPosition=bottom;verticalAlign=top;html=1;" parent="1" vertex="1">
          <mxGeometry x="80" y="310" width="30" height="60" as="geometry" />
        </mxCell>
        <mxCell id="Apf32Z8yxxnL-lNzwtcJ-4" value="" style="endArrow=classic;html=1;rounded=0;exitX=0.5;exitY=0;exitDx=0;exitDy=0;exitPerimeter=0;" parent="1" source="Apf32Z8yxxnL-lNzwtcJ-2" edge="1">
          <mxGeometry width="50" height="50" relative="1" as="geometry">
            <mxPoint x="400" y="310" as="sourcePoint" />
            <mxPoint x="50" y="270" as="targetPoint" />
          </mxGeometry>
        </mxCell>
        <mxCell id="Apf32Z8yxxnL-lNzwtcJ-5" value="" style="endArrow=classic;html=1;rounded=0;exitX=0.5;exitY=0;exitDx=0;exitDy=0;exitPerimeter=0;" parent="1" source="Apf32Z8yxxnL-lNzwtcJ-3" edge="1">
          <mxGeometry width="50" height="50" relative="1" as="geometry">
            <mxPoint x="400" y="310" as="sourcePoint" />
            <mxPoint x="70" y="270" as="targetPoint" />
          </mxGeometry>
        </mxCell>
        <mxCell id="Apf32Z8yxxnL-lNzwtcJ-6" value="Πεδίο επιλογής κριτηρίων αναζήτησης" style="shape=umlBoundary;whiteSpace=wrap;html=1;" parent="1" vertex="1">
          <mxGeometry x="265" y="120" width="105" height="80" as="geometry" />
        </mxCell>
        <mxCell id="Apf32Z8yxxnL-lNzwtcJ-7" value="Λίστα αγγελιών εργασίας" style="shape=umlBoundary;whiteSpace=wrap;html=1;" parent="1" vertex="1">
          <mxGeometry x="230" y="-10" width="100" height="80" as="geometry" />
        </mxCell>
        <mxCell id="Apf32Z8yxxnL-lNzwtcJ-8" value="" style="endArrow=classic;html=1;rounded=0;entryX=-0.024;entryY=0.602;entryDx=0;entryDy=0;entryPerimeter=0;" parent="1" target="Apf32Z8yxxnL-lNzwtcJ-7" edge="1">
          <mxGeometry width="50" height="50" relative="1" as="geometry">
            <mxPoint x="90" y="170" as="sourcePoint" />
            <mxPoint x="450" y="250" as="targetPoint" />
          </mxGeometry>
        </mxCell>
        <mxCell id="Apf32Z8yxxnL-lNzwtcJ-9" value="Εμφάνισε" style="ellipse;shape=umlControl;whiteSpace=wrap;html=1;" parent="1" vertex="1">
          <mxGeometry x="535" y="10" width="60" height="70" as="geometry" />
        </mxCell>
        <mxCell id="Apf32Z8yxxnL-lNzwtcJ-10" value="" style="endArrow=classic;html=1;rounded=0;exitX=0.992;exitY=0.38;exitDx=0;exitDy=0;exitPerimeter=0;entryX=0.04;entryY=0.374;entryDx=0;entryDy=0;entryPerimeter=0;" parent="1" source="Apf32Z8yxxnL-lNzwtcJ-7" target="Apf32Z8yxxnL-lNzwtcJ-9" edge="1">
          <mxGeometry width="50" height="50" relative="1" as="geometry">
            <mxPoint x="400" y="300" as="sourcePoint" />
            <mxPoint x="450" y="250" as="targetPoint" />
          </mxGeometry>
        </mxCell>
        <mxCell id="Apf32Z8yxxnL-lNzwtcJ-11" value="" style="endArrow=classic;html=1;rounded=0;entryX=-0.024;entryY=0.534;entryDx=0;entryDy=0;entryPerimeter=0;" parent="1" target="Apf32Z8yxxnL-lNzwtcJ-6" edge="1">
          <mxGeometry width="50" height="50" relative="1" as="geometry">
            <mxPoint x="100" y="180" as="sourcePoint" />
            <mxPoint x="450" y="250" as="targetPoint" />
          </mxGeometry>
        </mxCell>
        <mxCell id="Apf32Z8yxxnL-lNzwtcJ-12" value="Επιλέγει κριτήρια αναζήτησης(τίτλος ή ετικέτες/tags)" style="text;html=1;strokeColor=none;fillColor=none;align=center;verticalAlign=middle;whiteSpace=wrap;rounded=0;rotation=-10;" parent="1" vertex="1">
          <mxGeometry x="170" y="120" width="70" height="40" as="geometry" />
        </mxCell>
        <mxCell id="Apf32Z8yxxnL-lNzwtcJ-13" value="Επιλέγει αγγελία" style="text;html=1;strokeColor=none;fillColor=none;align=center;verticalAlign=middle;whiteSpace=wrap;rounded=0;rotation=-40;" parent="1" vertex="1">
          <mxGeometry x="130" y="55" width="60" height="30" as="geometry" />
        </mxCell>
        <mxCell id="Apf32Z8yxxnL-lNzwtcJ-14" value="Οθόνη πληροφοριών αγγελίας" style="shape=umlBoundary;whiteSpace=wrap;html=1;" parent="1" vertex="1">
          <mxGeometry x="360" y="220" width="100" height="70" as="geometry" />
        </mxCell>
        <mxCell id="Apf32Z8yxxnL-lNzwtcJ-15" value="" style="endArrow=classic;html=1;rounded=0;entryX=0.016;entryY=0.529;entryDx=0;entryDy=0;entryPerimeter=0;" parent="1" target="Apf32Z8yxxnL-lNzwtcJ-14" edge="1">
          <mxGeometry width="50" height="50" relative="1" as="geometry">
            <mxPoint x="100" y="200" as="sourcePoint" />
            <mxPoint x="350" y="335" as="targetPoint" />
          </mxGeometry>
        </mxCell>
        <mxCell id="Apf32Z8yxxnL-lNzwtcJ-16" value="Επιλέγει να κάνει αίτηση" style="text;html=1;strokeColor=none;fillColor=none;align=center;verticalAlign=middle;whiteSpace=wrap;rounded=0;rotation=15;" parent="1" vertex="1">
          <mxGeometry x="300" y="212.5" width="60" height="30" as="geometry" />
        </mxCell>
        <mxCell id="Apf32Z8yxxnL-lNzwtcJ-17" value="Εμφάνισε" style="ellipse;shape=umlControl;whiteSpace=wrap;html=1;" parent="1" vertex="1">
          <mxGeometry x="510" y="280" width="60" height="70" as="geometry" />
        </mxCell>
        <mxCell id="Apf32Z8yxxnL-lNzwtcJ-18" value="Φόρμα αίτησης εργασίας&amp;nbsp;" style="shape=umlBoundary;whiteSpace=wrap;html=1;" parent="1" vertex="1">
          <mxGeometry x="261.49" y="360" width="100" height="70" as="geometry" />
        </mxCell>
        <mxCell id="Apf32Z8yxxnL-lNzwtcJ-19" value="" style="endArrow=classic;html=1;rounded=0;exitX=0.993;exitY=0.392;exitDx=0;exitDy=0;exitPerimeter=0;entryX=0.276;entryY=0.221;entryDx=0;entryDy=0;entryPerimeter=0;" parent="1" source="Apf32Z8yxxnL-lNzwtcJ-14" target="Apf32Z8yxxnL-lNzwtcJ-17" edge="1">
          <mxGeometry width="50" height="50" relative="1" as="geometry">
            <mxPoint x="400" y="240" as="sourcePoint" />
            <mxPoint x="450" y="190" as="targetPoint" />
          </mxGeometry>
        </mxCell>
        <mxCell id="Apf32Z8yxxnL-lNzwtcJ-20" value="" style="endArrow=classic;html=1;rounded=0;exitX=-0.007;exitY=0.649;exitDx=0;exitDy=0;exitPerimeter=0;entryX=0.876;entryY=0.111;entryDx=0;entryDy=0;entryPerimeter=0;" parent="1" source="Apf32Z8yxxnL-lNzwtcJ-17" target="Apf32Z8yxxnL-lNzwtcJ-18" edge="1">
          <mxGeometry width="50" height="50" relative="1" as="geometry">
            <mxPoint x="400" y="240" as="sourcePoint" />
            <mxPoint x="450" y="190" as="targetPoint" />
          </mxGeometry>
        </mxCell>
        <mxCell id="Apf32Z8yxxnL-lNzwtcJ-21" value="" style="endArrow=classic;html=1;rounded=0;entryX=0.368;entryY=0.053;entryDx=0;entryDy=0;entryPerimeter=0;" parent="1" target="Apf32Z8yxxnL-lNzwtcJ-18" edge="1">
          <mxGeometry width="50" height="50" relative="1" as="geometry">
            <mxPoint x="100" y="210" as="sourcePoint" />
            <mxPoint x="450" y="190" as="targetPoint" />
            <Array as="points" />
          </mxGeometry>
        </mxCell>
        <mxCell id="Apf32Z8yxxnL-lNzwtcJ-22" value="Συντάσει αίτηση και επιβεβαιώνει" style="text;html=1;strokeColor=none;fillColor=none;align=center;verticalAlign=middle;whiteSpace=wrap;rounded=0;rotation=30;" parent="1" vertex="1">
          <mxGeometry x="195" y="280" width="105" height="20" as="geometry" />
        </mxCell>
        <mxCell id="Apf32Z8yxxnL-lNzwtcJ-23" value="Επαρκείς πληροφορίες;" style="ellipse;shape=umlControl;whiteSpace=wrap;html=1;" parent="1" vertex="1">
          <mxGeometry x="535" y="430" width="80" height="80" as="geometry" />
        </mxCell>
        <mxCell id="Apf32Z8yxxnL-lNzwtcJ-26" value="Ναί" style="text;html=1;strokeColor=none;fillColor=none;align=center;verticalAlign=middle;whiteSpace=wrap;rounded=0;rotation=20;" parent="1" vertex="1">
          <mxGeometry x="470" y="448" width="60" height="30" as="geometry" />
        </mxCell>
        <mxCell id="Apf32Z8yxxnL-lNzwtcJ-31" value="Επιτρεπτό μέγεθος αρχείου;" style="ellipse;shape=umlControl;whiteSpace=wrap;html=1;" parent="1" vertex="1">
          <mxGeometry x="290" y="515" width="80" height="80" as="geometry" />
        </mxCell>
        <mxCell id="Apf32Z8yxxnL-lNzwtcJ-34" value="" style="endArrow=classic;html=1;rounded=0;exitX=0.066;exitY=0.83;exitDx=0;exitDy=0;exitPerimeter=0;entryX=0.994;entryY=0.31;entryDx=0;entryDy=0;entryPerimeter=0;" parent="1" source="Apf32Z8yxxnL-lNzwtcJ-31" target="Apf32Z8yxxnL-lNzwtcJ-65" edge="1">
          <mxGeometry width="50" height="50" relative="1" as="geometry">
            <mxPoint x="400" y="400" as="sourcePoint" />
            <mxPoint x="150" y="610" as="targetPoint" />
          </mxGeometry>
        </mxCell>
        <mxCell id="Apf32Z8yxxnL-lNzwtcJ-35" value="Ναί" style="text;html=1;strokeColor=none;fillColor=none;align=center;verticalAlign=middle;whiteSpace=wrap;rounded=0;rotation=-15;" parent="1" vertex="1">
          <mxGeometry x="195" y="570" width="60" height="30" as="geometry" />
        </mxCell>
        <mxCell id="Apf32Z8yxxnL-lNzwtcJ-40" value="" style="endArrow=classic;html=1;rounded=0;entryX=0.034;entryY=0.663;entryDx=0;entryDy=0;entryPerimeter=0;exitX=1.015;exitY=0.438;exitDx=0;exitDy=0;exitPerimeter=0;strokeColor=#FF0000;" parent="1" source="Apf32Z8yxxnL-lNzwtcJ-23" target="Apf32Z8yxxnL-lNzwtcJ-41" edge="1">
          <mxGeometry width="50" height="50" relative="1" as="geometry">
            <mxPoint x="400" y="480" as="sourcePoint" />
            <mxPoint x="450" y="430" as="targetPoint" />
          </mxGeometry>
        </mxCell>
        <mxCell id="Apf32Z8yxxnL-lNzwtcJ-41" value="Εμφάνισε" style="ellipse;shape=umlControl;whiteSpace=wrap;html=1;strokeColor=#FF0000;" parent="1" vertex="1">
          <mxGeometry x="770" y="375" width="70" height="70" as="geometry" />
        </mxCell>
        <mxCell id="Apf32Z8yxxnL-lNzwtcJ-42" value="Όχι" style="text;html=1;strokeColor=none;fillColor=none;align=center;verticalAlign=middle;whiteSpace=wrap;rounded=0;rotation=-35;" parent="1" vertex="1">
          <mxGeometry x="690" y="430" width="60" height="30" as="geometry" />
        </mxCell>
        <mxCell id="Apf32Z8yxxnL-lNzwtcJ-45" value="Όχι" style="text;html=1;strokeColor=none;fillColor=none;align=center;verticalAlign=middle;whiteSpace=wrap;rounded=0;rotation=0;" parent="1" vertex="1">
          <mxGeometry x="190" y="485" width="60" height="30" as="geometry" />
        </mxCell>
        <mxCell id="Apf32Z8yxxnL-lNzwtcJ-46" value="Ανανέωσε" style="ellipse;shape=umlControl;whiteSpace=wrap;html=1;" parent="1" vertex="1">
          <mxGeometry x="435" y="55" width="65" height="70" as="geometry" />
        </mxCell>
        <mxCell id="Apf32Z8yxxnL-lNzwtcJ-47" value="" style="endArrow=classic;html=1;rounded=0;entryX=-0.017;entryY=0.706;entryDx=0;entryDy=0;entryPerimeter=0;exitX=0.998;exitY=0.426;exitDx=0;exitDy=0;exitPerimeter=0;" parent="1" source="Apf32Z8yxxnL-lNzwtcJ-6" target="Apf32Z8yxxnL-lNzwtcJ-46" edge="1">
          <mxGeometry width="50" height="50" relative="1" as="geometry">
            <mxPoint x="400" y="310" as="sourcePoint" />
            <mxPoint x="450" y="260" as="targetPoint" />
          </mxGeometry>
        </mxCell>
        <mxCell id="Apf32Z8yxxnL-lNzwtcJ-48" value="" style="endArrow=classic;html=1;rounded=0;entryX=0.968;entryY=0.75;entryDx=0;entryDy=0;entryPerimeter=0;exitX=0.118;exitY=0.294;exitDx=0;exitDy=0;exitPerimeter=0;" parent="1" source="Apf32Z8yxxnL-lNzwtcJ-46" target="Apf32Z8yxxnL-lNzwtcJ-7" edge="1">
          <mxGeometry width="50" height="50" relative="1" as="geometry">
            <mxPoint x="400" y="310" as="sourcePoint" />
            <mxPoint x="450" y="260" as="targetPoint" />
          </mxGeometry>
        </mxCell>
        <mxCell id="Apf32Z8yxxnL-lNzwtcJ-49" value="" style="endArrow=classic;html=1;rounded=0;exitX=0.15;exitY=0.923;exitDx=0;exitDy=0;exitPerimeter=0;entryX=0.713;entryY=-0.01;entryDx=0;entryDy=0;entryPerimeter=0;" parent="1" source="Apf32Z8yxxnL-lNzwtcJ-9" target="Apf32Z8yxxnL-lNzwtcJ-14" edge="1">
          <mxGeometry width="50" height="50" relative="1" as="geometry">
            <mxPoint x="400" y="310" as="sourcePoint" />
            <mxPoint x="450" y="260" as="targetPoint" />
          </mxGeometry>
        </mxCell>
        <mxCell id="Apf32Z8yxxnL-lNzwtcJ-50" value="Μήνυμα έλλειψης" style="shape=umlBoundary;whiteSpace=wrap;html=1;strokeColor=#FF0000;" parent="1" vertex="1">
          <mxGeometry x="670" y="290" width="80" height="60" as="geometry" />
        </mxCell>
        <mxCell id="Apf32Z8yxxnL-lNzwtcJ-51" value="" style="endArrow=classic;html=1;rounded=0;exitX=0.217;exitY=0.206;exitDx=0;exitDy=0;exitPerimeter=0;strokeColor=#FF0000;entryX=0.82;entryY=0.93;entryDx=0;entryDy=0;entryPerimeter=0;" parent="1" source="Apf32Z8yxxnL-lNzwtcJ-41" target="Apf32Z8yxxnL-lNzwtcJ-50" edge="1">
          <mxGeometry width="50" height="50" relative="1" as="geometry">
            <mxPoint x="400" y="310" as="sourcePoint" />
            <mxPoint x="707" y="361" as="targetPoint" />
          </mxGeometry>
        </mxCell>
        <mxCell id="Apf32Z8yxxnL-lNzwtcJ-53" value="Εμφάνισε" style="ellipse;shape=umlControl;whiteSpace=wrap;html=1;strokeColor=#FF0000;" parent="1" vertex="1">
          <mxGeometry x="110" y="440" width="70" height="70" as="geometry" />
        </mxCell>
        <mxCell id="Apf32Z8yxxnL-lNzwtcJ-54" value="Μήνυμα μη επιτρεπτού μεγέθους&amp;nbsp;" style="shape=umlBoundary;whiteSpace=wrap;html=1;strokeColor=#FF0000;" parent="1" vertex="1">
          <mxGeometry x="-70" y="445" width="90" height="70" as="geometry" />
        </mxCell>
        <mxCell id="Apf32Z8yxxnL-lNzwtcJ-56" value="Εμφάνισε" style="ellipse;shape=umlControl;whiteSpace=wrap;html=1;strokeColor=#000000;" parent="1" vertex="1">
          <mxGeometry x="291.49" y="680" width="70" height="70" as="geometry" />
        </mxCell>
        <mxCell id="Apf32Z8yxxnL-lNzwtcJ-57" value="Μήνυμα επιτυχίας" style="shape=umlBoundary;whiteSpace=wrap;html=1;" parent="1" vertex="1">
          <mxGeometry x="485" y="680" width="85" height="60" as="geometry" />
        </mxCell>
        <mxCell id="Apf32Z8yxxnL-lNzwtcJ-58" value="" style="endArrow=classic;html=1;rounded=0;exitX=1.008;exitY=0.544;exitDx=0;exitDy=0;exitPerimeter=0;entryX=-0.019;entryY=0.539;entryDx=0;entryDy=0;entryPerimeter=0;" parent="1" source="Apf32Z8yxxnL-lNzwtcJ-56" target="Apf32Z8yxxnL-lNzwtcJ-57" edge="1">
          <mxGeometry width="50" height="50" relative="1" as="geometry">
            <mxPoint x="430" y="720" as="sourcePoint" />
            <mxPoint x="480" y="670" as="targetPoint" />
          </mxGeometry>
        </mxCell>
        <mxCell id="Apf32Z8yxxnL-lNzwtcJ-59" value="Αγγελία" style="ellipse;shape=umlEntity;whiteSpace=wrap;html=1;" parent="1" vertex="1">
          <mxGeometry x="730" y="-5" width="70" height="65" as="geometry" />
        </mxCell>
        <mxCell id="Apf32Z8yxxnL-lNzwtcJ-60" value="" style="endArrow=classic;html=1;rounded=0;entryX=0;entryY=0;entryDx=0;entryDy=0;" parent="1" source="Apf32Z8yxxnL-lNzwtcJ-9" target="Apf32Z8yxxnL-lNzwtcJ-59" edge="1">
          <mxGeometry width="50" height="50" relative="1" as="geometry">
            <mxPoint x="430" y="250" as="sourcePoint" />
            <mxPoint x="480" y="200" as="targetPoint" />
          </mxGeometry>
        </mxCell>
        <mxCell id="Apf32Z8yxxnL-lNzwtcJ-61" value="" style="endArrow=classic;html=1;rounded=0;exitX=0.976;exitY=0.686;exitDx=0;exitDy=0;exitPerimeter=0;entryX=0.24;entryY=0.168;entryDx=0;entryDy=0;entryPerimeter=0;" parent="1" source="Apf32Z8yxxnL-lNzwtcJ-18" target="Apf32Z8yxxnL-lNzwtcJ-23" edge="1">
          <mxGeometry width="50" height="50" relative="1" as="geometry">
            <mxPoint x="420" y="350" as="sourcePoint" />
            <mxPoint x="524.1200000000003" y="376.55999999999995" as="targetPoint" />
          </mxGeometry>
        </mxCell>
        <mxCell id="Apf32Z8yxxnL-lNzwtcJ-62" value="" style="endArrow=classic;html=1;rounded=0;entryX=0.237;entryY=0.17;entryDx=0;entryDy=0;entryPerimeter=0;exitX=0.442;exitY=0.998;exitDx=0;exitDy=0;exitPerimeter=0;" parent="1" source="Apf32Z8yxxnL-lNzwtcJ-18" target="Apf32Z8yxxnL-lNzwtcJ-31" edge="1">
          <mxGeometry width="50" height="50" relative="1" as="geometry">
            <mxPoint x="279.5999999999999" y="490.4200000000001" as="sourcePoint" />
            <mxPoint x="300" y="480" as="targetPoint" />
            <Array as="points" />
          </mxGeometry>
        </mxCell>
        <mxCell id="Apf32Z8yxxnL-lNzwtcJ-63" value="" style="endArrow=classic;html=1;rounded=0;exitX=0.983;exitY=0.813;exitDx=0;exitDy=0;exitPerimeter=0;entryX=0.002;entryY=0.407;entryDx=0;entryDy=0;entryPerimeter=0;" parent="1" source="Apf32Z8yxxnL-lNzwtcJ-65" target="Apf32Z8yxxnL-lNzwtcJ-56" edge="1">
          <mxGeometry width="50" height="50" relative="1" as="geometry">
            <mxPoint x="266.7800000000002" y="754.3899999999999" as="sourcePoint" />
            <mxPoint x="267" y="836" as="targetPoint" />
          </mxGeometry>
        </mxCell>
        <mxCell id="Apf32Z8yxxnL-lNzwtcJ-65" value="Καταχώρησε" style="ellipse;shape=umlControl;whiteSpace=wrap;html=1;" parent="1" vertex="1">
          <mxGeometry x="30" y="630" width="70" height="70" as="geometry" />
        </mxCell>
        <mxCell id="Apf32Z8yxxnL-lNzwtcJ-67" value="" style="endArrow=classic;html=1;rounded=0;entryX=0.5;entryY=0;entryDx=0;entryDy=0;exitX=0.501;exitY=0.999;exitDx=0;exitDy=0;exitPerimeter=0;" parent="1" source="Apf32Z8yxxnL-lNzwtcJ-65" target="NsxrtX6s669W8uWcx8N7-1" edge="1">
          <mxGeometry width="50" height="50" relative="1" as="geometry">
            <mxPoint x="120" y="750" as="sourcePoint" />
            <mxPoint x="138" y="831" as="targetPoint" />
          </mxGeometry>
        </mxCell>
        <mxCell id="Apf32Z8yxxnL-lNzwtcJ-68" value="Αρχεία χειριστή" style="ellipse;shape=umlEntity;whiteSpace=wrap;html=1;" parent="1" vertex="1">
          <mxGeometry x="450" y="570" width="70" height="60" as="geometry" />
        </mxCell>
        <mxCell id="Apf32Z8yxxnL-lNzwtcJ-69" value="" style="endArrow=classic;html=1;rounded=0;entryX=0;entryY=0;entryDx=0;entryDy=0;" parent="1" target="Apf32Z8yxxnL-lNzwtcJ-68" edge="1">
          <mxGeometry width="50" height="50" relative="1" as="geometry">
            <mxPoint x="370" y="555" as="sourcePoint" />
            <mxPoint x="540" y="690" as="targetPoint" />
          </mxGeometry>
        </mxCell>
        <mxCell id="Apf32Z8yxxnL-lNzwtcJ-71" value="Φόρτωσε" style="ellipse;shape=umlControl;whiteSpace=wrap;html=1;" parent="1" vertex="1">
          <mxGeometry x="315" y="-140" width="67.5" height="70" as="geometry" />
        </mxCell>
        <mxCell id="Apf32Z8yxxnL-lNzwtcJ-72" value="Ετικέτες&lt;br&gt;/Tags" style="ellipse;shape=umlEntity;whiteSpace=wrap;html=1;" parent="1" vertex="1">
          <mxGeometry x="530" y="-137.5" width="70" height="67.5" as="geometry" />
        </mxCell>
        <mxCell id="Apf32Z8yxxnL-lNzwtcJ-73" value="" style="endArrow=classic;html=1;rounded=0;exitX=0.853;exitY=0.101;exitDx=0;exitDy=0;exitPerimeter=0;entryX=0.064;entryY=0.721;entryDx=0;entryDy=0;entryPerimeter=0;" parent="1" source="Apf32Z8yxxnL-lNzwtcJ-7" target="Apf32Z8yxxnL-lNzwtcJ-71" edge="1">
          <mxGeometry width="50" height="50" relative="1" as="geometry">
            <mxPoint x="570" y="220" as="sourcePoint" />
            <mxPoint x="620" y="170" as="targetPoint" />
          </mxGeometry>
        </mxCell>
        <mxCell id="Apf32Z8yxxnL-lNzwtcJ-74" value="" style="endArrow=classic;html=1;rounded=0;exitX=0.997;exitY=0.523;exitDx=0;exitDy=0;exitPerimeter=0;entryX=0;entryY=0.5;entryDx=0;entryDy=0;" parent="1" source="Apf32Z8yxxnL-lNzwtcJ-71" target="Apf32Z8yxxnL-lNzwtcJ-72" edge="1">
          <mxGeometry width="50" height="50" relative="1" as="geometry">
            <mxPoint x="570" y="220" as="sourcePoint" />
            <mxPoint x="620" y="170" as="targetPoint" />
          </mxGeometry>
        </mxCell>
        <mxCell id="Apf32Z8yxxnL-lNzwtcJ-75" value="Εμφάνισε" style="ellipse;shape=umlControl;whiteSpace=wrap;html=1;" parent="1" vertex="1">
          <mxGeometry x="405" y="-75" width="60" height="70" as="geometry" />
        </mxCell>
        <mxCell id="Apf32Z8yxxnL-lNzwtcJ-76" value="" style="endArrow=classic;html=1;rounded=0;exitX=0.858;exitY=0.906;exitDx=0;exitDy=0;exitPerimeter=0;entryX=0.07;entryY=0.343;entryDx=0;entryDy=0;entryPerimeter=0;" parent="1" source="Apf32Z8yxxnL-lNzwtcJ-71" target="Apf32Z8yxxnL-lNzwtcJ-75" edge="1">
          <mxGeometry width="50" height="50" relative="1" as="geometry">
            <mxPoint x="570" y="220" as="sourcePoint" />
            <mxPoint x="620" y="170" as="targetPoint" />
          </mxGeometry>
        </mxCell>
        <mxCell id="Apf32Z8yxxnL-lNzwtcJ-77" value="" style="endArrow=classic;html=1;rounded=0;" parent="1" source="Apf32Z8yxxnL-lNzwtcJ-75" target="Apf32Z8yxxnL-lNzwtcJ-6" edge="1">
          <mxGeometry width="50" height="50" relative="1" as="geometry">
            <mxPoint x="570" y="220" as="sourcePoint" />
            <mxPoint x="620" y="170" as="targetPoint" />
          </mxGeometry>
        </mxCell>
        <mxCell id="NsxrtX6s669W8uWcx8N7-1" value="Αίτηση" style="ellipse;shape=umlEntity;whiteSpace=wrap;html=1;" parent="1" vertex="1">
          <mxGeometry x="30" y="770" width="70" height="60" as="geometry" />
        </mxCell>
        <mxCell id="tfqwHV6p6eVYu7cymqu7-2" value="" style="endArrow=classic;html=1;rounded=0;entryX=0.983;entryY=0.83;entryDx=0;entryDy=0;entryPerimeter=0;exitX=0.026;exitY=0.35;exitDx=0;exitDy=0;exitPerimeter=0;strokeColor=#FF0000;" parent="1" source="Apf32Z8yxxnL-lNzwtcJ-31" target="Apf32Z8yxxnL-lNzwtcJ-53" edge="1">
          <mxGeometry width="50" height="50" relative="1" as="geometry">
            <mxPoint x="540" y="500" as="sourcePoint" />
            <mxPoint x="590" y="450" as="targetPoint" />
          </mxGeometry>
        </mxCell>
        <mxCell id="tfqwHV6p6eVYu7cymqu7-3" value="" style="endArrow=classic;html=1;rounded=0;exitX=0.008;exitY=0.663;exitDx=0;exitDy=0;exitPerimeter=0;entryX=1.022;entryY=0.622;entryDx=0;entryDy=0;entryPerimeter=0;strokeColor=#FF0000;" parent="1" source="Apf32Z8yxxnL-lNzwtcJ-53" target="Apf32Z8yxxnL-lNzwtcJ-54" edge="1">
          <mxGeometry width="50" height="50" relative="1" as="geometry">
            <mxPoint x="540" y="500" as="sourcePoint" />
            <mxPoint x="590" y="450" as="targetPoint" />
          </mxGeometry>
        </mxCell>
        <mxCell id="tfqwHV6p6eVYu7cymqu7-5" value="" style="endArrow=classic;html=1;rounded=0;entryX=0.816;entryY=1.013;entryDx=0;entryDy=0;entryPerimeter=0;exitX=-0.026;exitY=0.652;exitDx=0;exitDy=0;exitPerimeter=0;" parent="1" source="Apf32Z8yxxnL-lNzwtcJ-23" target="Apf32Z8yxxnL-lNzwtcJ-18" edge="1">
          <mxGeometry width="50" height="50" relative="1" as="geometry">
            <mxPoint x="540" y="500" as="sourcePoint" />
            <mxPoint x="590" y="450" as="targetPoint" />
          </mxGeometry>
        </mxCell>
        <mxCell id="tfqwHV6p6eVYu7cymqu7-6" value="" style="endArrow=classic;html=1;rounded=0;" parent="1" edge="1">
          <mxGeometry width="50" height="50" relative="1" as="geometry">
            <mxPoint x="100" y="230" as="sourcePoint" />
            <mxPoint x="260" y="400" as="targetPoint" />
          </mxGeometry>
        </mxCell>
        <mxCell id="tfqwHV6p6eVYu7cymqu7-7" value="Υποβάλει αρχείο" style="text;html=1;strokeColor=none;fillColor=none;align=center;verticalAlign=middle;whiteSpace=wrap;rounded=0;rotation=45;" parent="1" vertex="1">
          <mxGeometry x="157" y="314" width="100" height="20" as="geometry" />
        </mxCell>
      </root>
    </mxGraphModel>
  </diagram>
</mxfile>
